<?xml version="1.0" encoding="utf-8"?>
<!-- Generator: Adobe Illustrator 19.1.0, SVG Export Plug-In . SVG Version: 6.00 Build 0)  -->
<svg version="1.2" baseProfile="tiny" id="Layer_1" xmlns="http://www.w3.org/2000/svg" xmlns:xlink="http://www.w3.org/1999/xlink"
	 x="0px" y="0px" viewBox="476 25 120 30" xml:space="preserve">
<g>
	<path fill="#66CCFF" d="M486.5,37.7c-0.8-0.9-1.8-1.4-2.7-1.4c-2.6,0-4.2,2.1-4.2,4.3s1.6,4.3,4.2,4.3c1.1,0,2.1-0.5,2.8-1.3
		l2.4,2.6c-1.5,1.5-3.9,2-5.1,2c-4.3,0-7.8-3-7.8-7.5c0-4.5,3.4-7.5,7.8-7.5c1.8,0,3.8,0.7,5.2,2.2L486.5,37.7z"/>
	<path fill="#66CCFF" d="M500.9,45.5L500.9,45.5c-1.1,1.7-3,2.5-5,2.5c-4.4,0-7-3.3-7-7.5c0-4.2,2.8-7.5,6.9-7.5
		c2.7,0,4.1,1.2,4.8,2.2h0.1v-10h3.6v22.5h-3.4L500.9,45.5L500.9,45.5z M496.6,44.8c2.6,0,4.2-2.1,4.2-4.3c0-2.2-1.6-4.3-4.2-4.3
		c-2.6,0-4.2,2.1-4.2,4.3C492.4,42.8,494,44.8,496.6,44.8z"/>
	<path fill="#66CCFF" d="M505.6,36.4v-3h2.9v-4.1h3.6v4.1h3.9v3h-3.9v6.2c0,1.4,0.4,2.3,2,2.3c0.6,0,1.5-0.1,1.9-0.4v3
		c-0.7,0.4-2,0.5-2.8,0.5c-3.8,0-4.7-1.7-4.7-5.1v-6.5L505.6,36.4L505.6,36.4z"/>
	<path fill="#333333" d="M528.6,45.5L528.6,45.5c-1.1,1.7-3,2.5-5,2.5c-4.4,0-7-3.3-7-7.5c0-4.2,2.8-7.5,6.9-7.5
		c2.7,0,4.1,1.2,4.8,2.2h0.1v-10h3.6v22.5h-3.4V45.5z M524.4,44.8c2.6,0,4.2-2.1,4.2-4.3c0-2.2-1.6-4.3-4.2-4.3
		c-2.6,0-4.2,2.1-4.2,4.3C520.2,42.8,521.8,44.8,524.4,44.8z"/>
	<path fill="#333333" d="M536.7,41.8c0.2,2.1,1.8,3.4,3.8,3.4c1.8,0,2.9-0.8,3.8-1.9l2.6,1.9c-1.7,2.1-3.8,2.9-6,2.9
		c-4.3,0-7.8-3-7.8-7.5c0-4.5,3.4-7.5,7.8-7.5c4,0,6.7,2.8,6.7,7.8v1L536.7,41.8L536.7,41.8z M544,39.1c0-2.1-1.4-3.4-3.6-3.4
		c-2.1,0-3.4,1.3-3.7,3.4H544z"/>
	<path fill="#333333" d="M557,37.4c-0.7-1-1.6-1.5-2.8-1.5c-1,0-2.1,0.4-2.1,1.5c0,2.6,7.7,0.5,7.7,6c0,3.4-3.2,4.6-6.2,4.6
		c-2.2,0-4.1-0.6-5.6-2.2l2.4-2.2c0.9,1,1.9,1.8,3.4,1.8c1,0,2.4-0.5,2.4-1.6c0-2.9-7.7-0.6-7.7-6.1c0-3.2,2.9-4.6,5.7-4.6
		c1.9,0,3.9,0.6,5.1,2.2L557,37.4z"/>
	<path fill="#333333" d="M562.9,26.4c1.3,0,2.3,0.9,2.3,2.1s-1,2.1-2.3,2.1c-1.3,0-2.3-1-2.3-2.1S561.6,26.4,562.9,26.4z
		 M561.2,33.4h3.6v14.3h-3.6V33.4z"/>
	<path fill="#333333" d="M581.3,33.4v13c0,5.1-2.5,8.4-8.1,8.4c-2.6,0-5.1-0.6-7.1-2.3l2.1-2.9c1.4,1.3,2.9,2.1,4.9,2.1
		c3.4,0,4.5-2,4.5-4.8v-1h-0.1c-1,1.4-2.9,2.1-4.7,2.1c-4.3,0-7.1-3.3-7.1-7.3c0-4.2,2.6-7.5,7-7.5c2,0,3.9,0.8,4.9,2.5h0.1v-2.1
		H581.3z M569.5,40.5c0,2.3,1.8,4.1,4.2,4.1c2.6,0,4.3-1.8,4.3-4.2c0-2.5-1.6-4.2-4.2-4.2C571.2,36.3,569.5,38,569.5,40.5z"/>
	<path fill="#333333" d="M583,33.4h3.4v2.3h0.1c0.7-1.4,2-2.6,4.4-2.6c3.8,0,5.2,2.7,5.2,5.6v9h-3.6v-7.2c0-1.6-0.1-4.2-2.6-4.2
		c-2.3,0-3.3,1.7-3.3,3.6v7.8H583L583,33.4L583,33.4z"/>
</g>
</svg>
