<?xml version="1.0" encoding="utf-8"?>
<!-- Generator: Adobe Illustrator 19.1.0, SVG Export Plug-In . SVG Version: 6.00 Build 0)  -->
<!DOCTYPE svg PUBLIC "-//W3C//DTD SVG 1.1//EN" "http://www.w3.org/Graphics/SVG/1.1/DTD/svg11.dtd">
<svg version="1.1" id="Layer_1" xmlns="http://www.w3.org/2000/svg" xmlns:xlink="http://www.w3.org/1999/xlink" x="0px" y="0px"
	 viewBox="0 0 125 35" enable-background="new 0 0 125 35" xml:space="preserve">
<g>
	<path fill="#E6E7E8" d="M10.902,15.083c-0.866-0.896-1.827-1.486-2.82-1.486c-2.724,0-4.365,2.138-4.365,4.461
		c0,2.323,1.641,4.461,4.365,4.461c1.148,0,2.201-0.495,2.881-1.395l2.478,2.665c-1.517,1.517-4.056,2.075-5.359,2.075
		C3.592,25.864,0,22.735,0,18.058c0-4.677,3.592-7.806,8.083-7.806c1.89,0,3.965,0.68,5.39,2.26L10.902,15.083z"/>
	<path fill="#E6E7E8" d="M25.893,23.262H25.83c-1.085,1.796-3.034,2.602-5.109,2.602c-4.585,0-7.342-3.407-7.342-7.805
		c0-4.398,2.944-7.806,7.186-7.806c2.787,0,4.274,1.301,5.049,2.26h0.093V2.077h3.718V25.49h-3.531V23.262z M21.464,22.519
		c2.724,0,4.366-2.138,4.366-4.461c0-2.323-1.642-4.461-4.366-4.461c-2.726,0-4.367,2.138-4.367,4.461
		C17.097,20.381,18.738,22.519,21.464,22.519z"/>
	<path fill="#E6E7E8" d="M30.817,13.782v-3.156h3.066V6.318h3.716v4.307h4.088v3.156h-4.088v6.505c0,1.489,0.434,2.417,2.075,2.417
		c0.65,0,1.549-0.125,2.013-0.464v3.129c-0.774,0.37-2.075,0.495-2.942,0.495c-3.932,0-4.862-1.765-4.862-5.266v-6.815H30.817z"/>
	<path fill="#E6E7E8" d="M54.82,23.262h-0.061c-1.086,1.796-3.036,2.602-5.111,2.602c-4.586,0-7.34-3.407-7.34-7.805
		c0-4.398,2.942-7.806,7.185-7.806c2.789,0,4.274,1.301,5.049,2.26h0.093V2.077h3.716V25.49h-3.53V23.262z M50.391,22.519
		c2.724,0,4.368-2.138,4.368-4.461c0-2.323-1.644-4.461-4.368-4.461c-2.726,0-4.369,2.138-4.369,4.461
		C46.022,20.381,47.665,22.519,50.391,22.519z"/>
	<path fill="#E6E7E8" d="M63.211,19.359c0.248,2.197,1.922,3.53,3.997,3.53c1.859,0,3.066-0.865,3.993-2.012l2.665,2.012
		c-1.737,2.138-3.934,2.975-6.288,2.975c-4.489,0-8.085-3.129-8.085-7.805c0-4.677,3.596-7.806,8.085-7.806
		c4.15,0,6.972,2.912,6.972,8.085v1.022H63.211z M70.832,16.569c-0.031-2.166-1.458-3.53-3.781-3.53c-2.197,0-3.561,1.395-3.84,3.53
		H70.832z"/>
	<path fill="#E6E7E8" d="M84.396,14.745c-0.712-0.994-1.639-1.521-2.913-1.521c-0.99,0-2.166,0.464-2.166,1.58
		c0,2.665,8.022,0.495,8.022,6.289c0,3.529-3.376,4.771-6.41,4.771c-2.295,0-4.276-0.589-5.793-2.291l2.476-2.323
		c0.963,1.05,1.953,1.824,3.533,1.824c1.085,0,2.476-0.526,2.476-1.702c0-3.066-8.022-0.652-8.022-6.32
		c0-3.314,2.975-4.799,5.981-4.799c1.981,0,4.084,0.621,5.294,2.26L84.396,14.745z"/>
	<path fill="#E6E7E8" d="M90.559,3.347c1.364,0,2.417,0.959,2.417,2.229c0,1.27-1.053,2.229-2.417,2.229
		c-1.36,0-2.354-1.054-2.354-2.229S89.199,3.347,90.559,3.347z M88.731,10.626h3.718V25.49h-3.718V10.626z"/>
	<path fill="#E6E7E8" d="M109.699,10.626v13.533c0,5.36-2.598,8.765-8.391,8.765c-2.759,0-5.266-0.586-7.373-2.445l2.232-3.034
		c1.486,1.36,3.034,2.134,5.109,2.134c3.592,0,4.709-2.044,4.709-4.984v-1.085h-0.066c-1.081,1.454-2.999,2.166-4.858,2.166
		c-4.461,0-7.405-3.404-7.405-7.617c0-4.398,2.759-7.806,7.342-7.806c2.075,0,4.025,0.806,5.11,2.602h0.062v-2.229H109.699z
		 M97.374,18.027c0,2.354,1.856,4.304,4.367,4.304c2.755,0,4.429-1.887,4.429-4.366c0-2.57-1.705-4.367-4.401-4.367
		C99.17,13.597,97.374,15.394,97.374,18.027z"/>
	<path fill="#E6E7E8" d="M111.433,10.626h3.533v2.382h0.063c0.68-1.486,2.072-2.755,4.551-2.755c3.994,0,5.42,2.818,5.42,5.852
		v9.385h-3.718v-7.526c0-1.643-0.122-4.367-2.724-4.367c-2.449,0-3.408,1.796-3.408,3.777v8.116h-3.718V10.626z"/>
</g>
</svg>
